<svg width="32" height="32" viewBox="0 0 32 32" fill="none" xmlns="http://www.w3.org/2000/svg">
<path d="M25.9544 20.5159C25.6245 20.3277 25.2744 20.169 24.9685 19.9418C24.4127 20.4868 23.1593 20.3629 23.1737 19.4279C23.1789 19.0967 23.6028 18.7182 23.8927 18.9434C24.1375 19.1335 23.8953 19.4561 23.9267 19.5498C24.0137 19.8084 24.5036 19.4148 24.526 19.1178C24.6025 18.1015 23.2201 17.9723 22.6666 18.7642C22.0244 19.6826 22.7639 20.6087 23.6636 20.9191C23.7359 20.9441 23.8367 20.8977 23.8214 20.9943C23.5084 21.1655 23.1878 21.4314 22.9338 21.682C22.8221 21.7921 22.2048 22.465 22.3216 22.5991C22.3588 22.5997 22.4 22.6237 22.4352 22.6189C22.5411 22.6045 23.4201 21.8762 23.6073 21.7463C24.3164 21.2538 25.1519 20.7581 26.002 20.5834C26.0132 20.5057 25.9841 20.5329 25.9544 20.5159Z" fill="#442727"/>
<path d="M29.0067 19.0315C28.8755 18.693 28.7628 18.2914 28.7017 17.9547C28.7017 17.9547 28.3904 16.8811 28.3107 15.7599C28.2112 14.6872 28.2288 13.4997 27.888 12.4703C27.8035 12.2153 27.6544 11.9794 27.5975 11.7193C27.592 11.6959 27.5831 11.67 27.5716 11.6418C27.586 11.6444 27.6055 11.645 27.6259 11.6377C27.6666 11.6233 27.6752 11.5945 27.6819 11.5733C28.0694 10.3791 28.4608 9.14522 29.022 8.21531C29.0265 8.20795 29.031 8.20059 29.0351 8.19323C29.1052 8.07835 29.1775 7.96827 29.253 7.86363C29.253 7.86363 29.1244 7.85307 29.0003 7.87419C28.9731 7.87899 28.9321 7.88699 28.8828 7.89947C28.8758 7.90107 28.8684 7.90331 28.8614 7.90523C28.6611 7.95835 28.3481 8.07835 28.2544 8.31643C28.1405 8.60602 28.1379 8.77306 28.1565 9.0201C28.1213 8.96346 28.072 8.9353 28.0064 8.89498C27.8263 8.78458 27.5808 8.81338 27.4442 8.98394C27.3274 9.12986 27.3284 9.32666 27.4384 9.47449C27.5604 9.63833 27.6967 9.63289 27.7453 9.60665C27.8029 9.56569 27.7328 9.59097 27.6727 9.54265C27.5949 9.48025 27.5911 9.38169 27.6483 9.31034C27.7053 9.2393 27.8071 9.21882 27.8858 9.26458C27.9677 9.31194 27.9872 9.38618 27.9712 9.51545C27.9642 9.58329 27.9101 9.85145 27.6112 9.91129C27.6112 9.91129 27.4468 9.96505 27.2301 9.90009C27.0132 9.83481 26.9473 9.70809 26.9473 9.70809C26.939 9.68889 26.9073 9.60537 26.9425 9.48825C26.9639 9.41721 27.0212 9.34138 27.0449 9.31258C27.0497 9.30746 27.0541 9.30234 27.0586 9.2969C27.0714 9.28026 27.0817 9.26106 27.0881 9.23962C27.1127 9.1577 27.0756 9.07194 27.0033 9.0329C26.993 9.02746 26.9818 9.02266 26.9703 9.01914C26.9588 9.01562 26.947 9.01338 26.9354 9.01242C26.8538 9.00506 26.7754 9.05626 26.7508 9.13818C26.7444 9.15962 26.7422 9.18106 26.7438 9.20218C26.7444 9.20922 26.745 9.21594 26.7466 9.22298C26.7502 9.2601 26.7562 9.35514 26.7351 9.42617C26.6999 9.54361 26.6263 9.59833 26.6087 9.60985C26.6087 9.60985 26.5051 9.67929 26.3544 9.63737C26.1361 9.57657 26.0302 9.43673 26.0302 9.43673C25.8136 9.22234 25.9166 8.96858 25.948 8.9081C26.0062 8.7913 26.0632 8.7401 26.1576 8.74586C26.2481 8.7513 26.3217 8.82426 26.3304 8.91482C26.3387 9.0057 26.2811 9.0857 26.1819 9.09498C26.1051 9.10234 26.0606 9.0425 26.0859 9.10842C26.1118 9.15706 26.2225 9.23674 26.4145 9.1673C26.5876 9.10458 26.697 8.94074 26.6801 8.75482C26.6599 8.53722 26.4711 8.37787 26.26 8.37051C26.1828 8.36795 26.1265 8.36443 26.0657 8.39227C26.2174 8.19675 26.4078 8.10299 26.4974 7.80475C26.5732 7.5526 26.323 7.00476 26.2539 6.98396C26.1848 6.96316 25.6741 7.28252 25.5982 7.53468C25.5086 7.83291 25.6158 8.01595 25.6347 8.26267C25.5995 8.20603 25.5502 8.17787 25.4846 8.13755C25.3045 8.02715 25.0591 8.05595 24.9224 8.22651C24.8057 8.37243 24.8066 8.56922 24.9167 8.71706C25.0386 8.8809 25.1749 8.87546 25.2235 8.84922C25.2811 8.80826 25.2111 8.83354 25.1509 8.78522C25.0732 8.72282 25.0693 8.62426 25.1266 8.5529C25.1835 8.48187 25.2853 8.46139 25.364 8.50714C25.4459 8.5545 25.4654 8.62874 25.4494 8.75802C25.4424 8.82586 25.3883 9.09402 25.0895 9.15386C25.0895 9.15386 24.925 9.20762 24.7084 9.14266C24.4914 9.07738 24.3842 8.94202 24.3842 8.94202C24.3842 8.94202 24.3836 8.94074 24.3823 8.93786C24.374 8.91866 24.3423 8.83514 24.3775 8.71802C24.399 8.64698 24.4562 8.57114 24.4799 8.54234C24.4847 8.53722 24.4892 8.5321 24.4937 8.52666C24.5065 8.51002 24.5167 8.49083 24.5231 8.46939C24.5477 8.38747 24.5106 8.30171 24.4383 8.26267C24.4281 8.25723 24.4169 8.25243 24.4054 8.24891C24.3938 8.24539 24.382 8.24315 24.3705 8.24219C24.2889 8.23483 24.2105 8.28603 24.1859 8.36795C24.1795 8.38939 24.1772 8.41083 24.1788 8.43195C24.1795 8.43899 24.1801 8.44571 24.1817 8.45275C24.1852 8.48986 24.1913 8.5849 24.1702 8.65594C24.135 8.77338 24.0623 8.82554 24.0447 8.83674C24.0422 8.83834 24.0409 8.83898 24.0409 8.83898C24.0409 8.83898 23.8764 8.89274 23.6598 8.82778C23.4429 8.7625 23.3357 8.62714 23.3357 8.62714C23.119 8.41275 23.2221 8.15899 23.2534 8.09851C23.3117 7.98171 23.3686 7.93051 23.463 7.93627C23.5536 7.94171 23.6272 8.01467 23.6358 8.10523C23.6441 8.19611 23.5865 8.27611 23.4873 8.28539C23.4105 8.29275 23.3661 8.23291 23.3913 8.29883C23.4173 8.34747 23.528 8.42715 23.72 8.35771C23.8931 8.29499 24.0025 8.13115 23.9855 7.94523C23.9654 7.72763 23.7766 7.56828 23.5654 7.56092C23.4883 7.55836 23.432 7.55484 23.3712 7.58268C23.5229 7.38716 23.7132 7.2934 23.8028 6.99516C23.8787 6.743 23.6284 6.19517 23.5593 6.17437C23.4902 6.15357 22.9795 6.47293 22.9037 6.72509C22.8141 7.02332 22.9213 7.20636 22.9402 7.45308C22.905 7.39644 22.8557 7.36828 22.7901 7.32796C22.61 7.21756 22.3645 7.24636 22.2279 7.41692C22.1111 7.56284 22.1121 7.75963 22.2221 7.90747C22.3441 8.07131 22.4804 8.06587 22.529 8.03963C22.5866 7.99867 22.5165 8.02395 22.4564 7.97563C22.3786 7.91323 22.3748 7.81467 22.432 7.74331C22.489 7.67227 22.5908 7.65179 22.6695 7.69755C22.7514 7.74491 22.7709 7.81915 22.7549 7.94843C22.7479 8.01627 22.6938 8.28443 22.3949 8.34427C22.3949 8.34427 22.2292 8.40251 22.0138 8.33307C21.865 8.28507 21.8167 8.17019 21.8167 8.17019C21.8084 8.15099 21.7774 8.06491 21.8126 7.94747C21.834 7.87643 21.8913 7.80059 21.915 7.77179C21.9198 7.76667 21.9242 7.76155 21.9287 7.75611C21.9415 7.73947 21.9518 7.72027 21.9582 7.69883C21.9828 7.61691 21.9457 7.53116 21.8734 7.49212C21.8631 7.48668 21.8519 7.48188 21.8404 7.47836C21.8289 7.47484 21.817 7.4726 21.8055 7.47164C21.7239 7.46428 21.6455 7.51548 21.6209 7.5974C21.6145 7.61883 21.6123 7.64027 21.6139 7.66139C21.6145 7.66843 21.6151 7.67515 21.6167 7.68219C21.6203 7.71931 21.6263 7.81435 21.6052 7.88539C21.57 8.00283 21.4974 8.05499 21.4798 8.06619C21.4798 8.06619 21.3547 8.13531 21.138 8.07035C20.9211 8.00507 20.8139 7.86971 20.8139 7.86971C20.5973 7.65531 20.7003 7.40156 20.7317 7.34108C20.7899 7.22428 20.8469 7.17308 20.9413 7.17884C21.0318 7.18428 21.1054 7.25724 21.114 7.3478C21.1224 7.43868 21.0648 7.51868 20.9656 7.52796C20.8888 7.53532 20.8443 7.47548 20.8696 7.5414C20.8955 7.59004 21.0062 7.66971 21.1982 7.60027C21.3713 7.53756 21.4807 7.37372 21.4638 7.1878C21.4436 6.9702 21.2548 6.81084 21.0437 6.80348C20.9665 6.80092 20.9102 6.7974 20.8494 6.82524C21.0011 6.62973 21.091 6.48861 21.1556 6.18429C21.2244 5.86109 20.8785 5.4995 20.7771 5.40414C20.6853 5.31774 20.572 5.25598 20.572 5.25598C20.6206 6.42813 20.2175 7.84795 19.8396 9.21274C19.8322 9.23962 19.8223 9.2713 19.837 9.30138C19.8409 9.30938 19.8485 9.31578 19.8569 9.3209L19.7913 9.35098C19.5535 9.49657 19.3938 9.63993 19.2124 9.79609C18.6736 10.2604 18.2067 10.9458 18.2822 11.6809C18.3242 12.0895 18.6979 12.462 18.6262 12.8898C18.5427 13.3884 17.945 13.8517 17.7578 14.261C17.5044 14.8143 17.8989 14.9199 18.2842 15.1752C18.2733 15.4248 18.0509 15.6447 18.2035 15.8879C18.2384 15.9432 18.3648 16.0248 18.3734 16.0699C18.3808 16.1099 18.3222 16.1698 18.3158 16.2267C18.2691 16.6418 18.5619 16.708 18.5721 16.9294C18.5789 17.077 18.4707 17.2715 18.4765 17.4363C18.5027 18.1989 19.4095 18.2958 19.9954 18.2584C20.188 18.2462 20.8075 18.0334 20.812 18.3042C20.8142 18.4277 20.6347 18.8584 20.5784 19.0017C20.0664 20.3112 18.9619 21.0686 18.5936 22.4247C18.5824 22.4663 18.5721 22.5079 18.5632 22.5495C18.5632 22.5495 18.5632 22.5499 18.5632 22.5502C17.9411 25.1246 18.5942 27.3911 19.2259 28.8061C22.8816 28.0004 26.0181 25.8103 28.0573 22.8135C28.1162 22.7268 28.1741 22.6398 28.2313 22.5518C28.2323 22.5502 28.2336 22.5483 28.2346 22.5467C28.2915 22.4587 28.3478 22.37 28.4029 22.2807C28.4073 22.2734 28.4118 22.2663 28.4163 22.259C28.4499 22.2043 28.4832 22.1496 28.5161 22.0945C28.5193 22.0894 28.5222 22.0843 28.5254 22.0788C28.5792 21.9883 28.6323 21.8974 28.6841 21.8056C28.6851 21.804 28.686 21.8024 28.687 21.8008C28.7388 21.7089 28.79 21.6164 28.84 21.5233C28.8438 21.5163 28.8473 21.5092 28.8511 21.5022C28.8819 21.4449 28.9123 21.3873 28.942 21.3294C28.9446 21.3246 28.9471 21.3198 28.9497 21.315C28.9983 21.2209 29.0457 21.1265 29.0921 21.0315C29.0931 21.0299 29.0937 21.028 29.0947 21.0264C29.1411 20.931 29.1868 20.8353 29.231 20.739C29.2345 20.7316 29.2377 20.7243 29.2412 20.7169C29.2684 20.6574 29.2953 20.5979 29.3218 20.538C29.3238 20.5339 29.3254 20.5297 29.3273 20.5259C29.39 20.3838 29.4505 20.2405 29.5087 20.0958C29.3238 19.7317 29.1414 19.3752 29.0089 19.0334L29.0067 19.0315ZM24.0159 22.0244C23.1299 22.6391 21.985 23.7182 20.8235 23.5991C19.5484 23.4686 20.5614 21.7019 21.0001 21.1844C21.0859 21.0833 21.6561 20.515 21.7671 20.6235C21.7934 21.0286 21.7006 21.4254 21.5755 21.8075C21.6369 21.8209 21.6519 21.7761 21.6843 21.7406C22.0913 21.2932 22.0644 20.7649 21.9812 20.2017C21.881 19.5249 21.6267 18.8785 21.386 18.2446C21.7182 17.9787 22.0337 17.6923 22.2733 17.3378C22.4186 17.1227 22.5892 16.8539 22.5991 16.5919C21.7684 17.379 20.4546 17.9886 19.2879 17.8715C18.9017 17.8328 18.7558 17.628 18.792 17.2482C18.8192 16.9618 18.9974 16.9157 18.7859 16.6133C18.6902 16.4767 18.5609 16.4431 18.6061 16.2312C18.6547 16.0027 18.9577 16.1666 19.1276 16.1439C19.1715 16.1381 19.2207 16.1266 19.1753 16.0802C19.0265 16.0056 18.5542 15.8639 18.4752 15.74C18.3418 15.5314 18.7824 15.2111 18.4368 14.9141C18.0883 14.6149 17.7837 14.7992 18.1763 14.2005C18.4816 13.7349 19.0073 13.2809 18.951 12.6719C18.9376 12.5273 18.8691 12.373 18.856 12.2233C18.8092 11.6953 18.9807 11.4338 19.2396 10.9791C19.2383 10.9433 19.2383 10.8978 19.2438 10.9718C19.3023 11.7765 19.8194 12.2517 20.5195 12.5596C19.9205 11.9788 19.9167 11.4559 19.8949 10.6332L20.0565 11.1826C20.2491 11.6194 20.5304 12.0172 20.8881 12.3349C21.1393 12.5577 21.5614 12.7586 21.7639 12.9631C22.0941 13.2965 22.2215 13.7586 22.8099 13.837C23.774 13.9653 23.942 12.7209 24.7826 12.8239C25.4859 12.91 25.5032 13.7544 25.293 14.2776C25.1669 14.5912 24.5046 15.4191 24.1263 15.3058C23.9711 15.2594 23.9929 15.0146 23.6588 15.1711C22.9245 15.5157 22.7946 16.8802 23.3789 17.4443C23.6518 17.7077 24.0211 17.7701 24.3884 17.747C24.6188 18.9249 25.2344 19.8609 26.3902 20.2728C26.5854 20.3422 26.8522 20.379 27.0324 20.4625C27.0641 20.4773 27.1076 20.4811 27.1114 20.5272C25.9848 20.7201 24.9426 21.3819 24.0166 22.0244H24.0159ZM23.9993 16.9672C24.6303 17.221 24.8498 16.2104 24.558 15.7685C24.5033 15.6856 24.4002 15.6818 24.423 15.5682C24.7212 15.4085 24.8703 15.8379 24.933 16.0655C25.0664 16.5499 24.9464 17.2907 24.3606 17.4094C23.2288 17.6389 23.024 16.0395 23.768 15.4722C23.8172 15.4616 23.8323 15.5237 23.8598 15.5557C23.8697 15.5672 23.8928 15.5682 23.9088 15.5698L23.9094 15.6139C23.5581 15.9064 23.5465 16.7851 23.999 16.9672H23.9993Z" fill="#442727"/>
<path d="M17.6397 24.2539C17.6595 24.1255 17.5321 23.6903 17.4877 23.5432C16.9011 21.5982 15.834 20.8392 14.077 20.0101C13.9097 19.931 13.0566 19.6053 12.9971 19.5221C12.8921 19.3762 13.0259 19.0658 13.1139 18.9262C14.0236 19.3458 16.0567 19.947 16.5351 18.6712C16.7101 18.2047 16.6084 17.8088 16.4295 17.3698C16.3527 17.181 16.2551 17.1474 16.2615 16.8952C16.2685 16.6175 16.3908 16.692 16.5021 16.526C16.665 16.2828 16.592 15.9096 16.3277 15.7756C16.6132 15.4709 16.7754 15.1509 16.5015 14.7695C16.3837 14.6057 16.1492 14.582 16.2333 14.3532C16.5895 14.3634 16.8826 14.1394 16.8371 13.7625C16.7907 13.381 16.1188 12.7446 15.8804 12.415C15.8436 12.3641 15.7403 12.231 15.7275 12.1839C15.6612 11.9385 15.9127 11.5894 15.9399 11.3241C15.9863 10.8729 15.7729 10.7167 15.6311 10.3596C15.5294 10.1033 15.4849 9.83066 15.3732 9.56155C15.3236 9.44219 15.0577 8.97915 15.0536 8.92155C15.0507 8.88188 15.1105 8.83644 15.115 8.76732C15.1262 8.59996 15.0158 7.75389 14.9896 7.48477C14.9659 7.14749 14.8513 6.21278 14.8513 6.21278H14.8504C14.7589 5.56511 14.6677 4.74048 14.796 2.84802C14.6139 2.92546 14.1298 3.89601 14.1381 4.12769C14.1586 4.68416 14.4255 4.50176 14.5205 4.89888C14.5432 4.98368 14.4242 5.05984 14.292 5C14.1324 4.928 14.0018 4.73856 13.8885 4.7136C13.8569 4.70432 13.8239 4.69984 13.79 4.70144C13.5862 4.7104 13.4287 4.92544 13.4383 5.18176C13.4476 5.43807 13.6204 5.63871 13.8242 5.62975C13.8581 5.62815 13.8908 5.62111 13.9215 5.60895C13.9215 5.60895 14.1423 5.48191 14.3794 5.47135C14.4722 5.46591 14.5096 5.51967 14.4975 5.57151C14.4616 5.72479 14.3931 5.83231 14.3275 5.91103C14.1119 6.16479 13.7785 6.3651 13.4857 6.44606C13.2105 6.52222 12.8272 6.54654 12.6016 6.39134C12.5385 6.33854 12.4829 6.2627 12.4717 6.15551C12.4592 6.03615 12.5168 5.80383 12.544 5.70367C12.5491 5.68831 12.5536 5.67231 12.5574 5.65599C12.5744 5.58015 12.5747 5.49599 12.5549 5.41055C12.4969 5.16064 12.289 4.99584 12.0902 5.0416C11.8915 5.08768 11.7773 5.32736 11.8352 5.57727C11.8551 5.66271 11.8925 5.73823 11.9408 5.79871C11.9514 5.81183 11.9623 5.82399 11.9738 5.83583C12.0423 5.91391 12.1962 6.09695 12.2374 6.20959C12.2746 6.3107 12.2579 6.4035 12.2246 6.4787C12.0902 6.71742 11.7354 6.8643 11.4548 6.91678C11.1556 6.97278 10.7956 6.9939 10.4872 6.80638C10.3953 6.74814 10.2833 6.65886 10.1976 6.49982C10.1723 6.4531 10.1944 6.39102 10.2852 6.3715C10.5166 6.31774 10.7627 6.38142 10.7627 6.38142C10.7956 6.38462 10.8289 6.38302 10.8618 6.37534C11.0606 6.32926 11.1748 6.08959 11.1169 5.83967C11.059 5.58975 10.851 5.42463 10.6523 5.47071C10.6193 5.47839 10.5886 5.49151 10.5604 5.50911C10.4577 5.56383 10.3812 5.78143 10.2462 5.89375C10.1342 5.98687 9.99982 5.94527 9.9995 5.85759C9.98734 5.44927 10.2923 5.55327 10.1669 5.0112C10.1125 4.77696 9.33811 3.91713 9.17812 3.95425C9.01813 3.99137 8.70071 5.104 8.7551 5.33855C8.88085 5.88063 9.109 5.65279 9.27763 6.02495C9.31603 6.10399 9.21363 6.20031 9.07188 6.16607C8.90133 6.12479 8.73686 5.96287 8.62039 5.95903C8.58743 5.95583 8.55416 5.95743 8.5212 5.96511C8.32249 6.01119 8.20826 6.25086 8.26617 6.50078C8.32409 6.75038 8.53208 6.9155 8.73078 6.86974C8.76374 6.86206 8.79446 6.84894 8.82262 6.83134C8.82262 6.83134 9.01557 6.66622 9.24691 6.61246C9.33715 6.59006 9.38418 6.63614 9.38194 6.68926C9.3749 6.86974 9.31347 6.99902 9.25683 7.09182C9.0626 7.39581 8.72982 7.53565 8.43672 7.61661C8.16154 7.69277 7.77821 7.71709 7.55262 7.56189C7.48958 7.50909 7.43391 7.43325 7.42271 7.32605C7.41023 7.20669 7.46783 6.97438 7.49502 6.87454C7.50014 6.85918 7.50462 6.84318 7.50846 6.82686C7.52542 6.75102 7.52574 6.66686 7.5059 6.58142C7.44799 6.3315 7.24 6.16671 7.04129 6.21247C6.84259 6.25854 6.72835 6.49822 6.78627 6.74814C6.80611 6.83358 6.84355 6.9091 6.89186 6.96958C6.90242 6.9827 6.9133 6.99486 6.92482 7.0067C6.9933 7.08478 7.14721 7.26781 7.18848 7.38045C7.2256 7.48157 7.20896 7.57437 7.17569 7.64957C7.04129 7.88829 6.68644 8.03516 6.40581 8.08764C6.10727 8.14364 5.71978 8.11036 5.4142 7.97757C5.32077 7.93565 5.21197 7.86909 5.11246 7.74749C5.07854 7.70621 5.08846 7.64157 5.17421 7.60541C5.3918 7.51037 5.64586 7.52765 5.64586 7.52765C5.67882 7.52477 5.71146 7.51709 5.7425 7.50365C5.92937 7.42205 5.99624 7.16573 5.89193 6.9315C5.78761 6.69726 5.55147 6.5731 5.3646 6.65502C5.33356 6.66846 5.30573 6.68702 5.28173 6.70942C5.19085 6.78174 5.15694 7.00926 5.04526 7.14429C4.95279 7.25629 4.81264 7.23997 4.79568 7.15421C4.70608 6.75582 5.02606 6.80222 4.79984 6.29342C4.77232 6.23166 4.67889 6.13151 4.55601 6.02111C4.55249 6.01791 4.54865 6.01439 4.54481 6.01119C4.24659 5.74591 3.78422 5.42623 3.64599 5.43359C3.75543 5.63295 3.94389 6.07551 4.1426 6.5731C4.14484 6.57886 4.1474 6.58494 4.14964 6.5907C4.43954 7.31677 4.74992 8.1542 4.86959 8.52156L5.0763 9.11995C5.0763 9.11995 5.20525 9.44507 5.44332 10.2559L5.49355 11.2841C5.53419 11.4658 5.49515 11.6335 5.51403 11.8076C5.67082 13.2505 6.53189 14.4031 6.31334 15.8719L6.18599 16.5919C6.18599 16.5919 6.01352 17.4744 5.26701 17.7695C4.93775 17.8997 4.61777 18.1058 4.30803 18.2824C4.09108 18.4062 3.08475 18.9938 2.46399 19.4206C4.42418 25.0775 9.79888 29.1392 16.1223 29.1392C16.5604 29.1392 16.9939 29.1197 17.4221 29.0817C17.4221 29.081 17.9561 26.3348 17.6409 24.2542L17.6397 24.2539ZM13.3698 21.4577C12.9875 21.6907 13.0364 20.8056 13.2143 20.756C13.5068 20.6744 13.567 21.3377 13.3698 21.4577ZM12.7664 22.3892C13.1929 22.2622 12.8793 23.1569 12.5184 23.0424C12.2486 22.9566 12.6201 22.4328 12.7664 22.3892ZM12.344 23.4715C12.2333 23.4488 12.3274 23.2443 12.4083 23.2161C12.5709 23.2184 12.4323 23.4897 12.344 23.4715ZM12.9251 22.3476C12.7622 22.2929 12.912 21.6929 13.119 21.6526C13.4431 21.5893 13.2895 22.458 12.9251 22.3476ZM13.0841 19.9541C13.2831 19.9934 13.4822 20.5592 13.2649 20.6193C13.0451 20.6798 12.7763 20.0731 13.0841 19.9541ZM16.3271 15.3759C16.4183 15.4527 15.939 15.686 15.9012 15.7013C15.6465 15.8056 15.3489 15.8626 15.0792 15.9199C15.0712 16.0056 15.0789 15.9714 15.1272 15.9829C15.4817 16.0687 15.7786 15.9055 16.0478 15.9589C16.2999 16.0092 16.4077 16.3826 16.1172 16.4293C15.9137 16.462 15.7214 16.3752 15.5275 16.3356L15.7652 16.5931C15.8833 16.7743 15.7393 16.7557 15.7012 16.8776C15.6491 17.0431 15.7284 17.2431 15.507 17.3554C15.1924 17.5151 14.8082 17.2101 14.7115 16.9112C14.6104 16.5986 14.684 16.166 14.8926 15.909C15.0459 15.7205 15.1512 15.7692 15.3521 15.6965C15.4865 15.6479 16.2666 15.325 16.3268 15.3756L16.3271 15.3759ZM6.49477 16.6946C6.67524 16.0018 6.71396 15.0492 6.55205 14.3516C6.42693 13.8124 6.16231 13.309 6.01544 12.7762C5.85289 12.1858 5.78474 11.5628 5.80649 10.9503C6.49893 10.35 7.48287 9.9769 8.35289 9.68891C10.0785 9.11803 12.5475 8.67452 14.3605 8.81468C14.6946 8.8406 14.6939 8.92443 14.8488 9.19035C15.1249 9.66459 15.1467 10.0108 15.3198 10.4793C15.4238 10.7603 15.6164 10.8419 15.6142 11.2233C15.6113 11.7724 15.1896 11.9356 15.5649 12.5062C15.7425 12.7762 16.5428 13.597 16.5376 13.8562C16.537 13.8825 16.497 13.9727 16.4781 13.9913C16.3485 14.118 16.0644 14.0341 15.9018 14.0706L15.9431 14.4162L15.9396 14.5407C15.427 14.6524 14.8465 14.9605 14.5042 15.3612C14.4341 15.4431 14.2383 15.7951 14.2155 15.8092C14.1039 15.8783 13.622 15.6655 13.4895 15.606C12.7894 15.2924 12.0496 14.7656 11.56 14.1756C11.1265 13.653 10.8244 13.0409 10.5476 12.4354L10.4388 12.4646C10.4628 12.5094 10.4712 12.5554 10.4728 12.6063C10.5038 13.6009 10.3822 14.5657 10.3435 15.5525C10.2932 16.8261 10.8894 17.6847 11.9651 18.3138C12.0976 18.3912 12.5849 18.5858 12.6473 18.6555C12.7737 18.797 12.551 19.508 12.4605 19.6856C11.9795 20.6293 10.9918 20.5077 10.1192 20.2558C8.5644 19.8072 7.19392 18.7266 6.25222 17.4331C6.30342 17.1781 6.42853 16.9461 6.49413 16.6949L6.49477 16.6946ZM5.91913 17.6843C6.14695 17.6216 6.33702 18.3208 6.00488 18.3515C5.70026 18.3797 5.65962 17.7557 5.91913 17.6843ZM6.0644 18.4875C6.08104 18.4696 6.20359 18.4162 6.22759 18.4206C6.40198 18.5506 6.64292 18.8168 6.54373 19.0472C6.39142 19.4011 5.84169 18.7262 6.0644 18.4875ZM6.62404 19.1883C6.80963 19.1538 7.16065 19.6043 7.06465 19.7922C6.88578 20.1419 6.16007 19.2747 6.62404 19.1883ZM7.63614 20.5243C7.36703 20.7013 6.77283 19.9566 7.19936 19.8926C7.36799 19.8674 7.88924 20.3579 7.63614 20.5243ZM8.29465 21.1505C8.00795 21.3909 7.44287 20.6625 7.80732 20.5646C7.97403 20.5198 8.50392 20.9749 8.29465 21.1505ZM9.04948 21.6792C8.90901 21.9729 8.16538 21.5339 8.4444 21.2363C8.63511 21.1243 9.13012 21.5112 9.04948 21.6792ZM9.24755 21.7486C9.39986 21.7198 9.82671 22.0078 9.81775 22.1908C9.61009 22.6024 8.77334 21.8385 9.24755 21.7486ZM10.5831 22.6708C10.4648 22.9336 9.90671 22.5755 9.86799 22.4248C9.85455 22.3726 9.89711 22.2785 9.94863 22.2609C10.14 22.195 10.6884 22.4366 10.5828 22.6708H10.5831ZM11.4602 23.002C11.3972 23.203 10.5895 23.0417 10.7275 22.6715C10.9198 22.5985 11.5524 22.7083 11.4602 23.002ZM11.5895 22.9764C11.5962 22.9083 11.7152 22.851 11.7751 22.8392C11.9818 22.7982 12.3578 22.787 12.281 23.0881C12.1571 23.2465 11.5664 23.2152 11.5895 22.9764ZM13.6005 25.577C13.5945 25.5876 13.4991 25.6314 13.4527 25.7009C13.3295 25.8842 13.166 26.5345 12.8089 26.2382C12.6678 26.1207 12.7385 26.0302 12.7046 25.8945C12.6848 25.8151 12.6131 25.7572 12.6134 25.6634C12.6141 25.5524 12.7052 25.4862 12.6777 25.3137C12.6601 25.2046 12.583 25.1815 12.559 25.1121C12.4953 24.9278 12.5712 24.7771 12.2643 24.7326C12.0998 24.7086 12.0576 24.9124 11.7853 24.7022C11.6615 24.6065 11.5767 24.4158 11.5936 24.2593C11.601 24.1927 11.698 23.9073 11.736 23.8564C11.7754 23.8039 11.8419 23.7883 11.8803 23.7447C11.9527 23.6625 11.968 23.5284 12.1219 23.5044C12.1933 23.4932 12.4557 23.5771 12.5181 23.6174C12.5827 23.6593 12.5981 23.7643 12.6694 23.786C12.7526 23.8113 12.8617 23.7774 12.9494 23.794C12.9881 23.8014 13.2668 23.8843 13.2799 23.8951C13.3074 23.9182 13.3257 24.0657 13.3548 24.1246C13.4742 24.3668 13.5977 24.6001 13.8953 24.4641C13.9608 24.7073 13.5951 24.9607 13.557 25.1025C13.5282 25.21 13.6572 25.4804 13.6002 25.5774L13.6005 25.577Z" fill="#442727"/>
</svg>
